<?xml version="1.0"?>
<svg xmlns="http://www.w3.org/2000/svg" xmlns:xlink="http://www.w3.org/1999/xlink" xmlns:svgjs="http://svgjs.com/svgjs" version="1.1" width="512" height="512" x="0" y="0" viewBox="0 0 512 512" style="enable-background:new 0 0 512 512" xml:space="preserve" class=""><g><g xmlns="http://www.w3.org/2000/svg"><path d="m361 281.975 59.573-34.393c-2.426-47.688-24.99-90.152-59.573-118.757z" fill="#ff9000" data-original="#000000" style="" class=""/><path d="m331 178.057v-68.84c-22.533-11.563-47.983-18.217-75-18.217-20.248 0-39.571 3.845-57.51 10.549z" fill="#ff9000" data-original="#000000" style="" class=""/><path d="m226 152.08-59.617-34.422c-37.982 24.69-65.105 64.539-72.913 110.933z" fill="#ff9000" data-original="#000000" style="" class=""/><path d="m331 212.705-74.995-43.301-75.005 43.301v86.59l74.995 43.301 75.005-43.301z" fill="#ff9000" data-original="#000000" style="" class=""/><path d="m181 333.943v68.84c22.533 11.563 47.983 18.217 75 18.217 20.248 0 39.571-3.845 57.51-10.549z" fill="#ff9000" data-original="#000000" style="" class=""/><path d="m256 0c-140.596 0-256 115.39-256 256s115.404 256 256 256 256-115.39 256-256-115.404-256-256-256zm0 451c-106.062 0-195-86.613-195-195 0-108.15 88.821-195 195-195 106.062 0 195 86.613 195 195 0 108.924-89.363 195-195 195z" fill="#ff9000" data-original="#000000" style="" class=""/><path d="m151 230.025-59.573 34.393c2.426 47.688 24.99 90.152 59.573 118.757z" fill="#ff9000" data-original="#000000" style="" class=""/><path d="m286 359.92 59.617 34.422c37.982-24.69 65.105-64.539 72.913-110.933z" fill="#ff9000" data-original="#000000" style="" class=""/></g></g></svg>
